<?xml version="1.0" encoding="utf-8"?>
<!-- Generator: Adobe Illustrator 28.0.0, SVG Export Plug-In . SVG Version: 6.00 Build 0)  -->
<svg version="1.1" id="Layer_1" xmlns="http://www.w3.org/2000/svg" xmlns:xlink="http://www.w3.org/1999/xlink" x="0px" y="0px"
	 viewBox="0 0 24 24" style="enable-background:new 0 0 24 24;" xml:space="preserve">
<style type="text/css">
	.st0{fill:none;stroke:#00BCD4;stroke-miterlimit:10;}
	.st1{fill:#00BCD4;stroke:#00BCD4;stroke-miterlimit:10;}
</style>
<g>
	<path d="M18.9,24H5.1C2.3,24,0,21.7,0,18.9V5.1C0,2.3,2.3,0,5.1,0h13.8C21.7,0,24,2.3,24,5.1v13.8C24,21.7,21.7,24,18.9,24z"/>
</g>
<g>
	<g id="LWPOLYLINE_29_">
		<path class="st0" d="M0.8,10.9c1.9-4.2,5.9-7.1,10.4-7.7v0.9C7,4.7,3.4,7.4,1.6,11.2L0.8,10.9z"/>
	</g>
	<g id="LWPOLYLINE_28_">
		<path class="st0" d="M23.2,10.9c-1.9-4.2-5.9-7.1-10.4-7.7v0.9c4.2,0.6,7.8,3.3,9.6,7.1L23.2,10.9z"/>
	</g>
	<g id="LWPOLYLINE_27_">
		<path class="st0" d="M0.8,13.2c1.9,4.2,5.9,7.1,10.4,7.7V20c-4.2-0.6-7.8-3.3-9.6-7.1L0.8,13.2z"/>
	</g>
	<g id="LWPOLYLINE_26_">
		<path class="st0" d="M23.2,13.2c-1.9,4.2-5.9,7.1-10.4,7.7V20c4.2-0.6,7.8-3.3,9.6-7.1L23.2,13.2z"/>
	</g>
	<g id="CIRCLE_11_">
		<path class="st1" d="M10.9,12c0-0.6,0.5-1.1,1.1-1.1c0.6,0,1.1,0.5,1.1,1.1c0,0.6-0.5,1.1-1.1,1.1C11.4,13.1,10.9,12.6,10.9,12
			L10.9,12z"/>
	</g>
	<g id="LWPOLYLINE_25_">
		<polygon class="st0" points="7.8,7.9 7.8,10.1 8.3,10.1 8.3,8.4 10,8.4 10,7.9 		"/>
	</g>
	<g id="LWPOLYLINE_24_">
		<polygon class="st0" points="16.2,7.9 16.2,10.1 15.7,10.1 15.7,8.4 14,8.4 14,7.9 		"/>
	</g>
	<g id="LWPOLYLINE_4_">
		<polygon class="st0" points="7.8,16.2 7.8,14 8.3,14 8.3,15.7 10,15.7 10,16.2 		"/>
	</g>
	<g id="LWPOLYLINE_1_">
		<polygon class="st0" points="16.2,16.2 16.2,14 15.7,14 15.7,15.7 14,15.7 14,16.2 		"/>
	</g>
</g>
</svg>
