<?xml version="1.0" encoding="utf-8"?>
<!-- Generator: Adobe Illustrator 28.0.0, SVG Export Plug-In . SVG Version: 6.00 Build 0)  -->
<svg version="1.1" id="Layer_1" xmlns="http://www.w3.org/2000/svg" xmlns:xlink="http://www.w3.org/1999/xlink" x="0px" y="0px"
	 viewBox="0 0 200 90.9" style="enable-background:new 0 0 200 90.9;" xml:space="preserve">
<style type="text/css">
	.st0{fill:#FFFFFF;}
</style>
<g>
	<g id="LWPOLYLINE_39_">
		<polygon class="st0" points="3.2,83.6 3.2,70.1 5.5,70.1 11.1,80 16.6,70.1 18.9,70.1 18.9,83.6 16.8,83.6 16.8,74.1 12.2,82.3 
			9.9,82.3 5.3,74.1 5.3,83.6 		"/>
	</g>
	<g id="LWPOLYLINE_38_">
		<rect x="30.4" y="70.1" class="st0" width="2.1" height="13.5"/>
	</g>
	<path class="st0" d="M52.3,78c1.6-0.6,2.7-2.1,2.7-3.9c0-2.3-1.8-4.1-4.1-4.1H44v13.5h2.1v-5.3H50l3,5.3h2.4L52.3,78z M51.3,76.1
		h-5.1v-4h4.8c1.1,0,2,0.9,2,2c0,0.8-0.5,1.6-1.3,1.9L51.3,76.1z"/>
	<g id="LWPOLYLINE_35_">
		<polygon class="st0" points="65,83.6 67.3,83.6 72.4,71.7 77.5,83.6 79.8,83.6 74,70.1 70.9,70.1 		"/>
	</g>
	<g id="LWPOLYLINE_34_">
		<polygon class="st0" points="94.6,70.1 96.8,70.1 100.7,81.5 104.6,70.1 105.8,70.1 109.7,81.5 113.6,70.1 115.8,70.1 111.2,83.6 
			108.2,83.6 105.2,74.9 102.3,83.6 99.2,83.6 		"/>
	</g>
	<g id="LWPOLYLINE_33_">
		<polygon class="st0" points="123.5,83.6 125.8,83.6 130.9,71.7 136,83.6 138.3,83.6 132.5,70.1 129.3,70.1 		"/>
	</g>
	<g id="LWPOLYLINE_32_">
		<polygon class="st0" points="167.4,70.1 177.2,70.1 177.2,72.2 173.4,72.2 173.4,83.6 171.3,83.6 171.3,72.2 167.4,72.2 		"/>
	</g>
	<g id="LWPOLYLINE_31_">
		<polygon class="st0" points="187.8,70.1 196.8,70.1 196.8,72.2 189.9,72.2 189.9,75.9 196,75.9 196,78 189.9,78 189.9,81.5 
			196.8,81.5 196.8,83.6 187.8,83.6 		"/>
	</g>
	<g id="LWPOLYLINE_30_">
		<path class="st0" d="M155.5,73.2l1.4-1.5c-1.8-1.5-4.4-2-6.6-1.2c-1.8,0.5-2.9,2.4-2.3,4.3c0.3,1.1,1.3,2,2.4,2.3l4.5,1.3
			c0.3,0.1,0.5,0.3,0.7,0.5c0.4,0.6,0.3,1.4-0.3,1.8c-1.9,1.3-4.5,1-6.1-0.7l-1.4,1.6c2.4,2.5,6.3,2.8,9,0.6
			c1.4-1.2,1.6-3.4,0.3-4.9c-0.4-0.5-0.9-0.8-1.5-1L151,75c-0.4-0.1-0.7-0.4-0.8-0.8c-0.3-0.7,0-1.4,0.7-1.7
			C152.4,71.9,154.2,72.1,155.5,73.2z"/>
	</g>
	<g id="LWPOLYLINE_29_">
		<path class="st0" d="M70,26.8C75.1,15.7,85.6,7.9,97.8,6.3v2.4c-11.2,1.6-20.9,8.8-25.6,19.1L70,26.8z"/>
	</g>
	<g id="LWPOLYLINE_28_">
		<path class="st0" d="M129.8,26.8C124.7,15.7,114.2,7.9,102,6.3v2.4c11.2,1.6,20.9,8.8,25.6,19.1L129.8,26.8z"/>
	</g>
	<g id="LWPOLYLINE_27_">
		<path class="st0" d="M70,33.1C75.1,44.2,85.6,52,97.8,53.6v-2.4c-11.2-1.6-20.9-8.8-25.6-19.1L70,33.1z"/>
	</g>
	<g id="LWPOLYLINE_26_">
		<path class="st0" d="M129.8,33.1C124.7,44.2,114.2,52,102,53.6v-2.4c11.2-1.6,20.9-8.8,25.6-19.1L129.8,33.1z"/>
	</g>
	<g id="CIRCLE_11_">
		<path class="st0" d="M97,29.9c0-1.6,1.3-2.9,2.9-2.9s2.9,1.3,2.9,2.9c0,1.6-1.3,2.9-2.9,2.9S97,31.5,97,29.9L97,29.9z"/>
	</g>
	<g id="LWPOLYLINE_25_">
		<polygon class="st0" points="88.8,18.8 88.8,24.7 90.1,24.7 90.1,20.2 94.6,20.2 94.6,18.8 		"/>
	</g>
	<g id="LWPOLYLINE_24_">
		<polygon class="st0" points="111,18.8 111,24.7 109.7,24.7 109.7,20.2 105.2,20.2 105.2,18.8 		"/>
	</g>
	<g id="LWPOLYLINE_4_">
		<polygon class="st0" points="88.8,41 88.8,35.2 90.1,35.2 90.1,39.7 94.6,39.7 94.6,41 		"/>
	</g>
	<g id="LWPOLYLINE_1_">
		<polygon class="st0" points="111,41 111,35.2 109.7,35.2 109.7,39.7 105.2,39.7 105.2,41 		"/>
	</g>
</g>
</svg>
